<svg xmlns="http://www.w3.org/2000/svg" width="30.283" height="33.419" viewBox="0 0 30.283 33.419">
  <g id="Group_108" data-name="Group 108" transform="translate(-1103.412 -50.324)">
    <path id="Union_3" data-name="Union 3" d="M11.415,37.42l1.835-4.781-3.682-8.27C7.3,19.274,8.111,13.84,12.357,10.6l-.5-1.125a2.716,2.716,0,0,1,4.963-2.209l.5,1.125c5.232-.981,9.837,2.062,12.1,7.14L33.1,23.8l4.781,1.835.736,1.654L12.151,39.074Zm7.557-23.089-.035-.079-.178.079ZM22.811,36.31l6.617-2.946a3.621,3.621,0,1,1-6.617,2.946Z" transform="translate(1095.08 44.668)" fill="#f0f0f0"/>
    <circle id="Ellipse_19" data-name="Ellipse 19" cx="5" cy="5" r="5" transform="translate(1120 57)" fill="#d31616"/>
  </g>
</svg>
