<svg xmlns="http://www.w3.org/2000/svg" width="59.017" height="22.187" viewBox="0 0 59.017 22.187"><defs><style>.a{fill:none;}.b{fill:#f0f0f0;}</style></defs><path class="a" d="M0,0H59.017V22.187H0Z"/><g transform="translate(6.388 6.396)"><path class="b" d="M53.468,33.436a2.191,2.191,0,0,0-.97.262V36.69a6.31,6.31,0,0,0,.7.026c.95,0,1.08-.435,1.08-1.043V34.245c0-.449-.149-.809-.809-.809Zm-6.309-.163c-.659,0-.81.362-.81.81v.252h1.618v-.252C47.968,33.635,47.817,33.273,47.159,33.273ZM34.936,36.387a.472.472,0,0,0,.536.539,1.967,1.967,0,0,0,.92-.262v-.71h-.866C35.117,35.954,34.936,36.03,34.936,36.387Zm24.67-2.951c-.66,0-.889.36-.889.809v1.637c0,.45.229.811.889.811s.889-.361.889-.811V34.245C60.495,33.8,60.264,33.436,59.606,33.436ZM31.7,38.223H29.76v-4.7h-.97V31.906h.97v-.972a1.832,1.832,0,0,1,2.1-2.106h1.3v1.619h-.81c-.606,0-.646.226-.646.649l0,.81h1.467L33,33.525H31.7v4.7Zm6.633.012H36.716l-.07-.409a3.708,3.708,0,0,1-1.833.475A1.721,1.721,0,0,1,33,36.413c0-1.293.737-1.755,2.055-1.755h1.342v-.28c0-.66-.076-.854-1.091-.854h-1.66l.162-1.619h1.814c2.227,0,2.715.7,2.715,2.486v3.843Zm5.5-4.591a9.258,9.258,0,0,0-1.78-.211c-.87,0-1.133.192-1.133.931v1.4c0,.739.263.932,1.133.932a9.237,9.237,0,0,0,1.78-.212V38.06a8.579,8.579,0,0,1-1.942.25c-2.084,0-2.912-1.1-2.912-2.679V34.5c0-1.584.828-2.682,2.912-2.682a8.543,8.543,0,0,1,1.942.251Zm6.074,1.987H46.349v.13c0,.739.263.932,1.133.932a11.316,11.316,0,0,0,2.264-.212V38.06a10.2,10.2,0,0,1-2.425.25c-2.084,0-2.913-1.1-2.913-2.679v-1.3c0-1.385.615-2.52,2.75-2.52s2.75,1.121,2.75,2.52Zm6.309.03c0,1.53-.437,2.646-3.086,2.646a14.651,14.651,0,0,1-2.574-.246V29.314l1.94-.324V32.05a4.405,4.405,0,0,1,1.456-.235c1.94,0,2.264.87,2.264,2.268v1.578Zm6.22.033c0,1.32-.545,2.6-2.825,2.6s-2.836-1.28-2.836-2.6V34.42c0-1.321.555-2.6,2.836-2.6s2.825,1.28,2.825,2.6Zm6.215,0c0,1.32-.546,2.6-2.825,2.6s-2.836-1.28-2.836-2.6V34.42c0-1.321.555-2.6,2.836-2.6s2.825,1.28,2.825,2.6Zm6.378,2.529h-2.1l-1.779-2.969v2.969H69.208V29.314l1.941-.324v5.735l1.779-2.819h2.1l-1.942,3.077Zm-9.21-4.787c-.659,0-.888.36-.888.809v1.637c0,.45.229.811.888.811s.891-.361.891-.811V34.245C66.712,33.8,66.479,33.436,65.821,33.436Zm10.318,3.679a.6.6,0,1,1-.6.6.59.59,0,0,1,.6-.6Zm0,.093a.508.508,0,0,0,0,1.014.508.508,0,0,0,0-1.014Zm-.112.855h-.106v-.669a1.227,1.227,0,0,1,.189-.016.355.355,0,0,1,.208.05.161.161,0,0,1,.06.138.166.166,0,0,1-.13.163v.005c.058.011.1.064.112.162a.556.556,0,0,0,.042.166h-.112a.5.5,0,0,1-.045-.171.125.125,0,0,0-.144-.117h-.074v.288Zm0-.37H76.1c.087,0,.162-.032.162-.115,0-.059-.042-.117-.162-.117a.551.551,0,0,0-.077.005Z" transform="translate(-28.79 -28.828)"/></g></svg>